<?xml version="1.0" encoding="utf-8"?>
<!-- Generator: Adobe Illustrator 23.1.0, SVG Export Plug-In . SVG Version: 6.00 Build 0)  -->
<svg version="1.1" id="Layer_1" xmlns="http://www.w3.org/2000/svg" xmlns:xlink="http://www.w3.org/1999/xlink" x="0px" y="0px"
	 viewBox="0 0 233.64 233.98" style="enable-background:new 0 0 233.64 233.98;" xml:space="preserve">
<style type="text/css">
	.st0{fill:#036260;}
	.st1{fill:#FFFFFF;}
	.st2{fill:#FCFDFD;}
</style>
<g>
	<path class="st0" d="M0.27,0.36c77.46,0,154.92,0,232.38-0.02c0.81,0,0.99,0.18,0.99,0.99c-0.02,77.47-0.02,154.94-0.02,232.41
		c-0.37,0.2-0.78,0.1-1.17,0.1c-76.99,0.01-153.98,0.01-230.97,0c-1.48,0-1.32,0.15-1.32-1.33c0-77,0-154,0-231
		C0.17,1.13,0.07,0.73,0.27,0.36z"/>
	<path class="st1" d="M0.27,0.36c0,77.32,0,154.65,0,231.97c0,1.41,0,1.41,1.41,1.41c77.31,0,154.63,0,231.94,0
		c-0.05,0.07,0.11,0.23-0.11,0.22c-0.29-0.01-0.58,0-0.86,0c-77.19,0-154.38,0-231.57,0.02c-0.88,0-1.05-0.17-1.05-1.05
		c0.03-77.2,0.02-154.4,0.04-231.6C0.07,1.01-0.18,0.6,0.27,0.36z"/>
	<path class="st1" d="M30.47,103.39c-0.11,6.22-0.22,12.45-0.33,18.67c-0.02,1.33,0.01,2.67,0.33,3.97
		c0.32,1.26,0.93,1.74,2.21,1.76c1.98,0.04,3.95,0.1,5.93,0.1c0.6,0,0.81,0.14,0.8,0.77c-0.04,2.09-0.03,4.18,0,6.26
		c0.01,0.57-0.16,0.76-0.73,0.72c-4.8-0.35-9.62-0.16-14.43-0.24c-1.78-0.03-3.43-1.88-3.49-3.78c-0.05-1.49,0.43-2.91,0.69-4.35
		c0.75-4.17,0.78-8.36,0.74-12.58c-0.05-5.58,0.3-11.16-0.1-16.73c-0.16-2.19-0.46-4.34-1.46-6.36c-0.9-1.82-0.57-3.68,0.49-5.35
		c1.59-2.52,3.89-4.11,6.8-4.75c1.91-0.42,2.76,0.31,2.61,2.24C30.03,90.29,30.65,96.84,30.47,103.39z"/>
	<path class="st1" d="M160.95,122.56c-1.12,1.83-1.12,1.84-2.24,0.08c-1.39-2.18-2.78-4.36-4.17-6.55c-0.6-0.94-0.43-1.33,0.62-1.39
		c2.87-0.16,5.74-0.29,8.61-0.41c1.08-0.04,1.3,0.35,0.79,1.27c-0.05,0.09-0.11,0.19-0.17,0.28c-0.61,0.89-0.71,1.59,0.11,2.59
		c2.71,3.31,3.07,7.04,1.33,10.91c-1.66,3.69-4.66,5.62-8.63,6.05c-1.25,0.14-2.52,0-3.72-0.45c-0.5-0.19-0.9-0.19-1.4,0.1
		c-2,1.16-5.4,0.22-6.6-1.76c-0.35-0.58-0.52-1.19-0.2-1.84c1.09-2.14,1.35-4.46,1.38-6.81c0.06-4.97,0.11-9.93-0.12-14.9
		c-0.08-1.77-0.32-3.49-1.43-5c-0.67-0.91-0.5-2.12,0.33-3.09c1.81-2.11,4.25-3.01,6.92-3.32c1.16-0.13,1.81,0.54,1.68,1.56
		c-0.67,5.31-0.29,10.64-0.36,15.96c-0.04,2.94-0.53,5.87-0.28,8.83c0.12,1.46,0.5,2.91,0.28,4.4c-0.04,0.31,0.05,0.52,0.37,0.68
		c1.87,0.97,4.63,0.43,6.23-1.26C161.77,126.94,162.07,124.39,160.95,122.56z"/>
	<path class="st1" d="M49.75,114.54c-0.23,0.68-0.38,1.22-0.59,1.75c-0.49,1.28-1.6,1.58-2.65,0.71c-0.36-0.3-0.65-0.67-0.97-1.01
		c-2.66-2.83-5.33-5.67-7.99-8.5c-1.34-1.42-0.99-2.69,0.88-3.13c4.16-0.97,8.33-1.92,12.49-2.85c1.75-0.39,2.76,0.64,2.06,2.29
		c-0.74,1.77-0.32,2.65,1.19,3.89c5.26,4.33,6.7,10.12,5.01,16.54c-1.64,6.26-5.96,9.91-12.31,11.1c-1.23,0.23-2.5,0.3-3.77,0.24
		c-0.54-0.03-0.74-0.22-0.73-0.78c0.03-2.09,0.01-4.18,0.01-6.27c0-0.37-0.06-0.7,0.54-0.61c4.96,0.76,8.64-3.27,8.47-8.48
		C51.35,117.47,50.85,116.08,49.75,114.54z"/>
	<path class="st1" d="M91.82,132.36c-0.41,0.51-0.72,0.9-1.04,1.28c-2.33,2.75-6.4,2.5-8.22-0.6c-1.69-2.87-1.93-6-1.08-9.18
		c0.44-1.63,1.5-2.63,3.3-2.79c2.05-0.19,3.87-1.08,5.55-2.23c1.66-1.14,2.21-2.84,1.46-4.72c-0.26-0.65-0.46-1.58-1.51-1.31
		c-0.83,0.22-1.45,1.46-1.1,2.3c0.5,1.19,0.24,2.16-0.51,3.1c-1.42,1.76-4.78,2.04-6.46,0.52c-0.88-0.79-1.16-1.81-1-2.94
		c0.49-3.36,2.57-5.37,5.66-6.42c2.09-0.71,4.25-0.78,6.38-0.19c3.85,1.05,5.91,4.14,5.85,8.63c-0.04,3.17-0.15,6.34,0.34,9.49
		c0.19,1.22,0.58,2.37,1.08,3.49c0.4,0.89,0.28,1.64-0.5,2.31c-1.3,1.12-2.72,2.01-4.43,2.35c-2.12,0.42-3.23-0.32-3.65-2.42
		C91.9,132.86,91.88,132.7,91.82,132.36z"/>
	<path class="st1" d="M109.68,130.09c1.5-0.66,2.63-2.41,2.58-3.69c-0.03-0.79-0.5-1.24-1.16-1.54c-0.96-0.44-1.98-0.71-3.01-0.8
		c-4.9-0.42-6.67-5.28-5.46-9.13c1.11-3.51,3.68-5.64,7.59-6.04c1.65-0.17,3.3-0.15,4.92,0.36c2.62,0.83,4.13,2.8,4.36,5.8
		c0.07,0.89,0.07,1.8,0.02,2.7c-0.09,1.59-1.15,2.58-2.76,2.56c-1.92-0.03-3.42-0.94-4.69-2.32c-0.38-0.41-0.39-0.8-0.05-1.25
		c0.28-0.37,0.53-0.77,0.72-1.19c0.17-0.36,0.24-0.77-0.15-1.08c-0.38-0.3-0.76-0.13-1.11,0.06c-2.29,1.26-2.35,3.54-0.08,4.88
		c1.08,0.64,2.24,1.14,3.37,1.7c3.71,1.83,5.44,4.88,4.76,8.39c-0.63,3.23-3.95,5.87-7.77,6.05c-2.28,0.1-4.51-0.21-6.63-1.16
		c-3.54-1.59-3.8-5.16-2.96-7.86c0.37-1.19,1.4-1.73,2.58-1.83c1.86-0.16,3.48,0.46,4.77,1.82
		C110.49,127.53,110.5,128.69,109.68,130.09z"/>
	<path class="st1" d="M190.38,122.69c-0.06-3.33,0.45-6.35,2.01-9.12c2.16-3.83,6.23-5.55,10.49-4.45c3.59,0.92,6.09,4.54,5.67,8.25
		c-0.21,1.86-1.26,3.19-2.8,4.15c-2.26,1.41-4.75,2.02-7.41,1.76c-0.35-0.03-0.63-0.17-0.55,0.39c0.26,1.96,0.43,3.94,1.11,5.81
		c0.07,0.2,0.17,0.4,0.28,0.58c0.29,0.52,0.65,1.03,1.31,0.95c0.73-0.09,0.8-0.78,0.89-1.32c0.14-0.89,0.19-1.79,0.26-2.68
		c0.16-2.12,1.45-3.49,3.35-3.51c1.94-0.03,3.38,1.35,3.59,3.44c0.45,4.53-3.74,8.83-8.45,8.66c-5.43-0.2-8.71-3.28-9.47-8.89
		C190.47,125.31,190.34,123.92,190.38,122.69z"/>
	<path class="st1" d="M75.03,135.53c-0.91-0.03-1.73-0.11-2.52-0.39c-2.03-0.71-2.81-2.12-2.31-4.2c0.79-3.27,1.2-6.58,1.17-9.94
		c-0.04-3.42,0.04-6.84-0.02-10.26c-0.03-2.12-0.21-4.23-1.5-6.08c-0.71-1.01-0.41-2.12,0.34-3c1.87-2.18,4.4-3.05,7.14-3.33
		c0.98-0.1,1.64,0.56,1.53,1.39c-0.4,2.84-0.11,5.68-0.15,8.52c-0.08,5.36-0.09,10.73-0.22,16.09c-0.05,2.1,0.44,4.05,1.01,6.03
		c0.85,2.95-0.4,4.72-3.47,5.09C75.67,135.48,75.31,135.5,75.03,135.53z"/>
	<path class="st1" d="M131.23,110.66c0.47-0.04,0.76-0.25,1.03-0.48c0.81-0.69,1.56-0.51,2.16,0.23c1.22,1.51,1.76,3.27,1.73,5.21
		c-0.01,0.77-0.38,1.08-1.19,0.95c-0.99-0.16-2-0.19-3-0.3c-0.62-0.07-0.9,0.09-0.89,0.8c0.04,3.28,0,6.55,0.02,9.83
		c0.01,1.38,0.38,2.69,0.89,3.98c0.84,2.13,0.17,3.56-2.01,4.28c-1.8,0.59-3.61,0.61-5.39-0.11c-1.8-0.73-2.4-2.01-1.69-3.79
		c0.76-1.91,1.06-3.86,1.02-5.9c-0.04-2.52,0.04-5.04,0.09-7.56c0.01-0.61-0.01-1.01-0.8-0.67c-0.67,0.28-1.17-0.04-1.55-0.61
		c-0.89-1.33-0.94-4.27-0.1-5.6c0.36-0.57,0.87-0.95,1.53-0.69c0.78,0.31,0.75-0.11,0.73-0.63c-0.01-0.54,0.08-1.1-0.02-1.62
		c-0.45-2.41,2.8-4.97,6-4.01c0.92,0.27,1.1,1.19,1.17,2.03C131.09,107.52,131.15,109.06,131.23,110.66z"/>
	<path class="st1" d="M180.67,121.42c0-1.94,0.05-3.89-0.01-5.83c-0.06-1.76-0.17-1.87-1.83-2.15c-0.89-0.15-1.29-0.64-1.44-1.48
		c-0.35-1.88-0.09-2.49,1.56-3.44c0.91-0.53,1.39-1.44,1.91-2.3c1.12-1.82,2.75-2.52,4.83-2.41c1.1,0.06,1.72,0.57,1.93,1.65
		c0.16,0.82,0.26,1.64,0.2,2.47c-0.05,0.68,0.13,1.02,0.88,0.9c0.35-0.05,0.72-0.01,1.08,0.02c0.38,0.03,0.77,0.2,0.81,0.59
		c0.14,1.14,0.21,2.31-0.31,3.39c-0.32,0.66-1,0.66-1.61,0.64c-0.64-0.03-0.87,0.15-0.86,0.84c0.03,4.28,0,8.56,0.03,12.84
		c0.01,1.38,0.47,2.68,0.96,3.96c0.71,1.88,0.12,3.2-1.77,3.96c-1.81,0.72-3.65,0.75-5.49,0.12c-2-0.69-2.66-2.11-1.87-4.07
		c0.68-1.69,1.02-3.43,0.98-5.26c-0.04-1.47-0.01-2.95-0.01-4.42C180.65,121.42,180.66,121.42,180.67,121.42z"/>
	<path class="st1" d="M171.28,135.61c-1.11-0.06-2.22-0.22-3.23-0.73c-1.42-0.72-1.96-1.77-1.43-3.28c1.57-4.53,1.25-9.14,0.7-13.76
		c-0.1-0.87-0.45-1.66-0.97-2.37c-0.73-0.99-0.66-2-0.01-3.01c1.31-2.04,5.82-4.02,8.19-3.58c0.83,0.15,1.27,0.59,1.15,1.5
		c-0.75,5.41-0.34,10.85-0.35,16.29c0,1.53,0.51,2.97,0.95,4.41c0.64,2.11,0.06,3.24-2.02,4.01
		C173.3,135.43,172.3,135.58,171.28,135.61z"/>
	<path class="st2" d="M166.89,101.86c0.83,0.76,1.59,1.02,2.44,0.98c0.23-0.01,0.4,0.12,0.54,0.31c0.62,0.87,1.41,1.42,2.52,1.4
		c0.28,0,0.48,0.11,0.57,0.39c0.29,0.86,0.93,1.41,1.78,1.91c-1.86,0.99-3.6,0.85-5.27-0.17
		C167.8,105.66,167.01,104.11,166.89,101.86z"/>
	<path class="st0" d="M91.95,125.48c-0.04,0.94-0.11,1.87-0.55,2.73c-0.49,0.97-1.39,1.28-2.34,0.84c-1.08-0.5-1.49-1.43-1.03-2.43
		c0.56-1.2,1.17-2.39,2.18-3.29c0.78-0.7,1.27-0.55,1.51,0.45C91.87,124.33,91.88,124.92,91.95,125.48z"/>
	<path class="st0" d="M197.51,116.68c0.03-0.81,0.3-1.84,0.93-2.75c0.28-0.41,0.64-0.66,1.18-0.55c0.91,0.18,1.8,1.41,2.02,2.82
		c0.2,1.28-0.22,2.26-1.17,2.77C198.72,119.89,197.47,119.05,197.51,116.68z"/>
</g>
</svg>
