<?xml version="1.0" encoding="utf-8"?>
<!-- Generator: Adobe Illustrator 23.1.0, SVG Export Plug-In . SVG Version: 6.00 Build 0)  -->
<svg version="1.1" id="Layer_1" xmlns="http://www.w3.org/2000/svg" xmlns:xlink="http://www.w3.org/1999/xlink" x="0px" y="0px"
	 viewBox="0 0 185.62 76.09" style="enable-background:new 0 0 185.62 76.09;" xml:space="preserve">
<style type="text/css">
	.st0{fill:#056361;}
	.st1{fill:#076361;}
	.st2{fill:#FFFFFF;}
</style>
<g>
	<path class="st0" d="M30.83,51.59c0,0.86-0.03,1.73,0.01,2.59c0.03,0.53-0.18,0.61-0.66,0.64c-0.96,0.06-1.88-0.2-2.82-0.2
		c-2.8,0-5.6,0-8.39,0c-2.43,0-3.96-1.88-3.44-4.28c0.72-3.3,1.13-6.62,1.14-10c0.01-4.37,0.03-8.75,0.03-13.12
		c0-2.14-0.11-4.28-0.52-6.4c-0.13-0.7-0.33-1.38-0.67-2.02c-0.87-1.65-0.73-3.29,0.24-4.83c1.32-2.09,3.22-3.39,5.63-3.92
		c1.54-0.33,2.22,0.25,2.13,1.8c-0.4,6.72,0.06,13.45-0.12,20.17c-0.1,3.9-0.15,7.79-0.22,11.69c-0.02,1.04,0.02,2.09,0.27,3.1
		c0.27,1.09,0.78,1.49,1.88,1.5c1.63,0.03,3.27,0.08,4.9,0.08c0.47,0,0.63,0.12,0.61,0.6C30.81,49.86,30.83,50.72,30.83,51.59z"/>
	<path class="st1" d="M131.29,44.04c-0.96,1.38-0.97,1.39-1.93-0.11c-1.14-1.77-2.27-3.55-3.4-5.34c-0.45-0.71-0.3-1.04,0.54-1.08
		c2.37-0.13,4.74-0.24,7.12-0.34c0.89-0.04,1.13,0.33,0.63,1.04c-0.67,0.94-0.63,1.62,0.13,2.59c2.14,2.72,2.34,5.78,0.9,8.89
		c-1.4,3.03-3.92,4.6-7.2,4.92c-1,0.1-2.03-0.02-2.99-0.39c-0.43-0.17-0.75-0.13-1.16,0.1c-1.65,0.95-4.48,0.15-5.45-1.49
		c-0.29-0.49-0.4-0.99-0.13-1.52c0.88-1.75,1.1-3.63,1.13-5.54c0.05-4.1,0.1-8.21-0.1-12.31c-0.07-1.49-0.28-2.93-1.19-4.22
		c-0.58-0.81-0.37-1.74,0.26-2.48c1.51-1.78,3.55-2.54,5.8-2.77c0.92-0.09,1.43,0.45,1.33,1.25c-0.55,4.42-0.24,8.85-0.3,13.28
		c-0.03,2.43-0.44,4.85-0.23,7.3c0.1,1.18,0.39,2.35,0.23,3.54c-0.03,0.24,0,0.46,0.28,0.58c1.58,0.65,3.63,0.56,5.09-0.94
		c1.21-1.25,1.58-3.46,0.77-4.87C131.42,44.08,131.35,44.07,131.29,44.04z"/>
	<path class="st0" d="M39.4,37.3c-0.18,0.55-0.3,0.97-0.45,1.38c-0.44,1.25-1.46,1.5-2.4,0.56c-0.76-0.75-1.47-1.55-2.21-2.33
		c-1.69-1.8-3.38-3.6-5.07-5.4c-1.06-1.14-0.77-2.18,0.73-2.53c3.44-0.8,6.88-1.59,10.32-2.37c1.46-0.33,2.31,0.5,1.74,1.86
		c-0.61,1.48-0.29,2.24,0.99,3.3c4.37,3.61,5.51,8.43,4.05,13.76c-1.45,5.29-5.18,8.22-10.55,9.06c-0.87,0.14-1.78,0.05-2.67,0.08
		c-0.38,0.01-0.58-0.07-0.58-0.54c0.03-1.73,0.01-3.45,0.01-5.18c0-0.31-0.04-0.53,0.46-0.47c4.69,0.57,7.47-3.46,6.98-7.74
		C40.61,39.56,40.26,38.43,39.4,37.3z"/>
	<path class="st1" d="M74.17,52.22c-0.36,0.14-0.51,0.49-0.73,0.76c-2.1,2.59-5.61,2.28-7.13-0.67c-1.15-2.23-1.34-4.61-0.75-7.03
		c0.35-1.45,1.23-2.37,2.85-2.52c1.66-0.15,3.14-0.88,4.5-1.81c1.44-0.98,1.87-2.46,1.19-4.06c-0.22-0.5-0.42-1.13-1.16-0.98
		c-0.58,0.11-1.13,1.09-1.03,1.7c0.02,0.12,0.06,0.23,0.11,0.34c0.43,0.94,0.12,1.74-0.48,2.47c-0.99,1.23-3.24,1.59-4.76,0.79
		c-1.29-0.68-1.71-2.06-1.17-3.82c0.16-0.52,0.38-1,0.67-1.45c2.58-4.03,9.55-4.5,12.44-0.85c1.16,1.48,1.48,3.21,1.46,5.03
		c-0.03,2.59-0.12,5.18,0.28,7.75c0.16,1.01,0.47,1.96,0.89,2.88c0.35,0.77,0.23,1.41-0.45,1.98c-0.85,0.72-1.76,1.32-2.81,1.69
		C75.76,55.22,74.68,54.6,74.17,52.22z M74.26,46.38c-0.04-0.41-0.04-0.83-0.12-1.24c-0.2-0.98-0.67-1.13-1.39-0.44
		c-0.77,0.73-1.26,1.65-1.7,2.59c-0.41,0.87-0.07,1.67,0.86,2.09c0.82,0.37,1.54,0.07,1.96-0.82
		C74.19,47.87,74.24,47.13,74.26,46.38z"/>
	<path class="st1" d="M89.02,50.16c1.14-0.46,2.13-2,2.04-3.06c-0.05-0.61-0.42-0.96-0.94-1.2c-0.82-0.38-1.7-0.6-2.58-0.68
		c-3.81-0.34-5.39-4.05-4.52-7.26c0.65-2.42,2.12-4.09,4.53-4.86c1.83-0.58,3.7-0.64,5.55-0.19c2.34,0.56,3.67,2.21,3.93,4.82
		c0.08,0.77,0.07,1.55,0.02,2.32c-0.08,1.28-0.93,2.09-2.21,2.09c-1.59,0-2.84-0.75-3.9-1.87c-0.39-0.41-0.3-0.76,0-1.18
		c0.37-0.51,1.02-1.15,0.41-1.71c-0.7-0.63-1.22,0.21-1.69,0.64c-1.06,0.98-0.88,2.31,0.4,3.2c1.08,0.75,2.33,1.18,3.49,1.79
		c1.33,0.69,2.41,1.62,3.03,3.02c1.68,3.77-0.54,7.78-4.84,8.56c-2.3,0.42-4.58,0.14-6.7-0.89c-2.34-1.13-3.37-4.1-2.3-6.48
		c0.46-1.02,1.32-1.41,2.36-1.47c0.91-0.05,1.77,0.21,2.56,0.64C89.31,47.27,89.71,48.33,89.02,50.16z"/>
	<path class="st1" d="M161.71,44.53c0.18,1.53,0.3,2.98,0.7,4.39c0.11,0.37,0.22,0.74,0.39,1.09c0.24,0.52,0.54,1.1,1.22,0.97
		c0.65-0.12,0.65-0.78,0.73-1.3c0.09-0.65,0.13-1.3,0.18-1.95c0.12-1.8,1.22-2.95,2.82-2.95c1.63,0,2.8,1.2,2.92,2.99
		c0.21,3.19-2.27,6.32-5.56,6.86c-3.54,0.58-7.55-0.84-8.76-5.22c-1.04-3.79-1.12-7.59,0.24-11.32c1.7-4.65,6.36-6.71,10.57-4.74
		c2.27,1.06,3.86,4.04,3.47,6.51c-0.24,1.49-1.1,2.56-2.35,3.31C166.29,44.36,164.13,44.86,161.71,44.53z M161.51,39.18
		c-0.03,1.8,0.8,2.49,2.19,1.96c0.91-0.35,1.36-1.13,1.26-2.21c-0.11-1.22-0.87-2.36-1.67-2.53c-0.45-0.1-0.75,0.1-0.99,0.43
		C161.76,37.59,161.55,38.44,161.51,39.18z"/>
	<path class="st1" d="M63.16,36.57c0,2.65,0.04,5.29-0.01,7.94c-0.04,1.95,0.14,3.83,0.74,5.71c0.86,2.71-0.23,4.19-3.1,4.44
		c-1.09,0.1-2.14-0.01-3.12-0.52c-1.26-0.65-1.77-1.66-1.43-3.02c1.56-6.28,1.03-12.64,0.83-18.99c-0.03-0.95-0.35-1.85-0.9-2.67
		c-0.66-0.96-0.63-1.88,0.15-2.78c1.53-1.77,3.59-2.48,5.83-2.71c0.97-0.1,1.39,0.49,1.26,1.46c-0.3,2.34-0.05,4.69-0.08,7.04
		c-0.02,1.37,0,2.74,0,4.1C63.27,36.57,63.22,36.57,63.16,36.57z"/>
	<path class="st1" d="M106.68,34.15c0.46,0.01,0.72-0.23,1-0.45c0.57-0.45,1.15-0.37,1.59,0.14c1.12,1.29,1.59,2.83,1.53,4.52
		c-0.02,0.53-0.33,0.76-0.91,0.68c-0.88-0.12-1.77-0.18-2.66-0.26c-0.37-0.03-0.63,0.03-0.62,0.51c0.02,2.91,0,5.83,0.05,8.74
		c0.02,1.01,0.37,1.97,0.74,2.92c0.63,1.61,0.15,2.71-1.46,3.34c-1.59,0.61-3.2,0.63-4.78-0.03c-1.39-0.59-1.88-1.64-1.32-3.02
		c0.69-1.69,0.9-3.42,0.87-5.23c-0.04-1.93,0.03-3.86,0.07-5.8c0.01-0.57,0.04-1.02-0.79-0.7c-0.56,0.21-0.99-0.15-1.22-0.64
		c-0.66-1.41-0.73-2.86-0.11-4.31c0.27-0.64,0.74-1.02,1.48-0.73c0.47,0.18,0.49-0.08,0.48-0.43c-0.01-0.48,0.07-0.96-0.01-1.42
		c-0.38-2.1,2.34-4.1,4.91-3.38c0.78,0.22,0.94,0.96,1.01,1.64c0.1,1,0.11,2.02,0.16,3.03C106.69,33.56,106.68,33.85,106.68,34.15z"
		/>
	<path class="st1" d="M155.85,34.38c0,0.05-0.01,0.32-0.04,0.58c-0.13,1.16-0.42,1.47-1.57,1.49c-0.57,0.01-0.75,0.16-0.75,0.76
		c0.03,3.51,0.01,7.02,0.02,10.53c0,1.15,0.38,2.22,0.78,3.28c0.59,1.58,0.13,2.66-1.43,3.28c-1.55,0.62-3.14,0.65-4.7,0.04
		c-1.52-0.59-2.02-1.7-1.42-3.21c0.6-1.49,0.86-3.01,0.84-4.61c-0.03-2.47,0.02-4.94,0.03-7.41c0-0.47-0.05-0.95-0.08-1.42
		c-0.05-0.75-0.36-1.15-1.2-1.23c-1.16-0.11-1.38-0.43-1.52-1.69c-0.14-1.27,0.13-1.88,1.05-2.25c0.94-0.37,1.37-1.21,1.85-1.98
		c0.92-1.5,2.23-2.15,3.97-2.04c1.04,0.07,1.47,0.39,1.65,1.39c0.1,0.58,0.19,1.18,0.16,1.77c-0.04,0.74,0.1,1.05,0.95,0.99
		C155.75,32.55,155.88,32.76,155.85,34.38z"/>
	<path class="st1" d="M139.88,54.78c-0.86-0.06-1.68-0.16-2.46-0.5c-1.39-0.6-1.9-1.49-1.41-2.91c1.29-3.72,1-7.49,0.56-11.28
		c-0.08-0.72-0.39-1.36-0.8-1.96c-0.63-0.93-0.66-1.75,0.09-2.62c1.71-1.99,3.96-2.87,6.56-2.82c0.89,0.02,1.11,0.48,1,1.5
		c-0.54,4.77-0.36,9.56-0.12,14.34c0.05,1.01,0.52,1.94,0.77,2.92c0.29,1.15,0.03,1.86-0.98,2.5
		C142.11,54.56,140.99,54.7,139.88,54.78z"/>
	<path class="st1" d="M142.73,30.99c-1.55,0.81-2.98,0.71-4.37-0.13c-1.4-0.85-2.04-2.14-2.15-3.96c0.68,0.6,1.3,0.84,2.01,0.8
		c0.24-0.01,0.37,0.14,0.5,0.32c0.5,0.69,1.16,1.11,2.03,1.09c0.29,0,0.42,0.15,0.51,0.4C141.51,30.19,142.01,30.63,142.73,30.99z"
		/>
	<path class="st2" d="M74.26,46.38c-0.02,0.75-0.07,1.49-0.39,2.18c-0.42,0.89-1.13,1.19-1.96,0.82c-0.93-0.41-1.27-1.21-0.86-2.09
		c0.44-0.94,0.93-1.86,1.7-2.59c0.72-0.69,1.2-0.54,1.39,0.44C74.22,45.55,74.22,45.97,74.26,46.38z"/>
</g>
</svg>
