<?xml version="1.0" encoding="utf-8"?>
<!-- Generator: Adobe Illustrator 23.1.0, SVG Export Plug-In . SVG Version: 6.00 Build 0)  -->
<svg version="1.1" id="Layer_1" xmlns="http://www.w3.org/2000/svg" xmlns:xlink="http://www.w3.org/1999/xlink" x="0px" y="0px"
	 viewBox="0 0 233.64 233.98" style="enable-background:new 0 0 233.64 233.98;" xml:space="preserve">
<style type="text/css">
	.st0{fill:#036260;}
	.st1{fill:#FFFFFF;}
	.st2{fill:#FCFDFD;}
	.st3{fill:#046260;}
</style>
<g>
	<path class="st0" d="M0.27,0.02c77.46,0,154.92,0,232.38-0.02c0.81,0,0.99,0.18,0.99,0.99c-0.02,77.47-0.02,154.94-0.02,232.41
		c-0.37,0.2-0.78,0.1-1.17,0.1c-76.99,0.01-153.98,0.01-230.97,0c-1.48,0-1.32,0.15-1.32-1.33c0-77,0-154,0-231
		C0.17,0.8,0.07,0.39,0.27,0.02z"/>
	<path class="st1" d="M0.27,0.02c0,77.32,0,154.65,0,231.97c0,1.41,0,1.41,1.41,1.41c77.31,0,154.63,0,231.94,0
		c-0.05,0.07,0.11,0.23-0.11,0.22c-0.29-0.01-0.58,0-0.86,0c-77.19,0-154.38,0-231.57,0.02c-0.88,0-1.05-0.17-1.05-1.05
		c0.03-77.2,0.02-154.4,0.04-231.6C0.07,0.68-0.18,0.26,0.27,0.02z"/>
	<path class="st1" d="M140.68,122.76c-1.26,1.85-1.27,1.86-2.53-0.11c-1.48-2.3-2.94-4.61-4.41-6.91c-0.63-1-0.46-1.4,0.75-1.47
		c3.16-0.18,6.31-0.33,9.47-0.46c0.81-0.04,1.2,0.54,0.71,1.16c-1.13,1.43-0.79,2.45,0.27,3.88c4.94,6.61,0.7,16.44-7.46,17.6
		c-1.75,0.25-3.44,0.14-5.09-0.44c-0.44-0.16-0.78-0.11-1.2,0.14c-2.2,1.29-5.83,0.37-7.2-1.79c-0.43-0.68-0.55-1.39-0.18-2.14
		c1.01-2.08,1.4-4.3,1.4-6.59c0.01-5.22,0.02-10.44-0.05-15.66c-0.03-2.3-0.22-4.58-1.66-6.58c-0.69-0.96-0.43-2.12,0.31-3.02
		c2.03-2.45,4.75-3.54,7.87-3.64c1.24-0.04,1.63,0.46,1.5,1.68c-0.64,5.78-0.32,11.58-0.33,17.37c0,1.79-0.17,3.59-0.35,5.38
		c-0.29,2.92,0.53,5.8,0.34,8.71c-0.02,0.27,0.05,0.47,0.34,0.6c2.03,0.87,4.67,0.71,6.42-0.98c1.8-1.75,2.37-4.52,1.31-6.5
		C140.86,122.87,140.75,122.83,140.68,122.76z"/>
	<path class="st1" d="M66.03,133.21c-0.5,0.61-0.81,1-1.13,1.38c-2.59,3.12-7.08,2.8-9.05-0.74c-1.68-3.02-2-6.28-1.11-9.61
		c0.5-1.87,1.71-2.98,3.76-3.16c2.4-0.21,4.48-1.3,6.35-2.75c1.64-1.26,1.88-4.02,0.59-5.66c-0.33-0.42-0.7-0.72-1.29-0.43
		c-0.8,0.41-1.4,1.54-1.08,2.35c0.54,1.37,0.29,2.52-0.66,3.59c-1.58,1.78-5.15,2-6.89,0.38c-1.2-1.12-1.26-2.53-0.9-4
		c0.84-3.41,3.84-5.91,7.69-6.49c1.8-0.27,3.59-0.24,5.35,0.26c4.01,1.13,6.28,4.61,6.18,9.28c-0.08,3.7-0.21,7.41,0.52,11.08
		c0.2,1,0.58,1.92,0.99,2.84c0.45,1.01,0.3,1.85-0.58,2.59c-1.46,1.22-3.03,2.19-4.93,2.52c-2.2,0.38-3.43-0.55-3.71-2.77
		C66.11,133.74,66.09,133.61,66.03,133.21z"/>
	<path class="st1" d="M85.43,130.76c1.48-0.62,2.73-2.59,2.63-3.99c-0.06-0.78-0.52-1.24-1.17-1.55c-0.99-0.46-2.04-0.75-3.11-0.84
		c-5.79-0.49-7.7-6.09-5.81-10.81c0.89-2.22,2.4-3.84,4.61-4.73c2.87-1.16,5.81-1.29,8.77-0.4c2.03,0.61,3.39,1.97,4.07,3.99
		c0.59,1.74,0.68,3.54,0.47,5.33c-0.21,1.72-1.55,2.71-3.29,2.54c-1.79-0.18-3.27-1.02-4.54-2.27c-0.58-0.57-0.7-1.13-0.11-1.78
		c0.31-0.34,0.58-0.74,0.69-1.21c0.08-0.35,0.17-0.72-0.15-1.01c-0.31-0.28-0.71-0.27-1.01-0.08c-0.95,0.58-2,1.21-2.14,2.41
		c-0.13,1.14,0.47,2.08,1.44,2.72c1.47,0.98,3.15,1.58,4.7,2.4c2.8,1.48,4.41,3.77,4.56,6.96c0.19,3.92-3.06,7.53-7.33,8.14
		c-2.79,0.4-5.52,0.06-8.14-1.04c-3.88-1.62-4.38-5.3-3.42-8.48c0.45-1.5,1.75-2.02,3.22-2.08c1.06-0.05,2.07,0.23,3.02,0.7
		C85.71,126.84,86.3,128.25,85.43,130.76z"/>
	<path class="st1" d="M180.44,123.43c0.25,2.18,0.43,4.28,1.09,6.31c0.12,0.37,0.28,0.74,0.46,1.09c0.3,0.55,0.67,1.09,1.39,1
		c0.78-0.1,0.87-0.8,0.96-1.39c0.14-0.92,0.19-1.86,0.26-2.79c0.18-2.4,1.65-3.96,3.74-3.95c2.13,0.02,3.69,1.66,3.82,4.02
		c0.25,4.72-4.05,9.1-8.9,9.06c-5.46-0.05-8.99-2.78-10.16-8.13c-1.02-4.64-1.07-9.3,0.69-13.81c2.24-5.73,7.52-8.26,13.05-6.33
		c3.38,1.18,5.83,5.22,5.27,8.76c-0.29,1.86-1.33,3.25-2.88,4.24C186.58,123.19,183.69,123.83,180.44,123.43z"/>
	<path class="st1" d="M43.9,117.02c-0.14-3.28,0.3-6.93-0.4-10.54c-0.19-0.96-0.49-1.86-1.06-2.68c-0.87-1.26-0.85-2.49,0.19-3.66
		c2.05-2.31,4.75-3.31,7.76-3.45c0.81-0.04,1.65,0.23,1.55,1.34c-0.51,5.86,0.05,11.73-0.2,17.6c-0.15,3.52-0.08,7.06-0.15,10.58
		c-0.03,1.7,0.6,3.24,1.03,4.83c0.9,3.28-0.43,5.21-3.82,5.58c-1.53,0.16-3.02,0.06-4.42-0.65c-1.65-0.84-2.25-2.14-1.85-3.92
		c0.54-2.42,1.04-4.85,1.22-7.34C43.93,122.25,43.84,119.81,43.9,117.02z"/>
	<path class="st1" d="M108.49,109.92c0.53-0.07,0.86-0.23,1.1-0.48c0.86-0.93,1.98-0.48,2.57,0.35c1.13,1.6,1.73,3.37,1.73,5.33
		c0,0.91-0.4,1.28-1.36,1.13c-1.1-0.18-2.21-0.21-3.32-0.31c-0.58-0.06-0.82,0.12-0.82,0.77c0.03,3.6,0,7.2,0.02,10.79
		c0.01,1.53,0.48,2.97,1.02,4.39c0.76,2.01,0.23,3.36-1.72,4.19c-2.11,0.9-4.27,0.94-6.4,0.07c-1.9-0.78-2.52-2.18-1.76-4.08
		c0.82-2.04,1.15-4.13,1.12-6.32c-0.04-2.73,0.03-5.47,0.07-8.2c0.01-0.64,0.02-1.05-0.85-0.69c-0.77,0.32-1.43-0.07-1.77-0.81
		c-0.88-1.89-0.94-3.82-0.1-5.74c0.34-0.78,1-1.17,1.84-0.86c0.59,0.22,0.68,0.02,0.66-0.49c-0.02-0.72,0.06-1.45-0.02-2.16
		c-0.3-2.67,3.49-5.25,6.64-4.07c0.93,0.35,1.04,1.31,1.14,2.18C108.49,106.55,108.48,108.2,108.49,109.92z"/>
	<path class="st1" d="M172.78,110.12c-0.01,0.11-0.03,0.5-0.08,0.9c-0.16,1.44-0.54,1.88-1.96,1.87c-0.88-0.01-1.06,0.29-1.05,1.11
		c0.04,4.43,0.01,8.86,0.02,13.28c0,1.53,0.42,2.98,0.97,4.39c0.91,2.35,0.19,3.88-2.23,4.66c-1.98,0.64-3.97,0.64-5.91-0.19
		c-1.84-0.79-2.45-2.18-1.7-4.03c0.82-2,1.18-4.05,1.1-6.21c-0.13-3.63,0.28-7.27,0-10.9c-0.14-1.77-0.17-1.83-1.89-2.1
		c-1.02-0.16-1.52-0.71-1.63-1.7c-0.08-0.72-0.14-1.43,0.01-2.15c0.09-0.43,0.22-0.94,0.66-1.05c1.66-0.41,2.38-1.77,3.18-3.04
		c1.13-1.79,2.78-2.53,4.84-2.48c1.58,0.04,2.11,0.49,2.42,2.04c0.18,0.85,0.19,1.72,0.16,2.58c-0.02,0.6,0.16,0.89,0.79,0.78
		c0.14-0.02,0.29-0.01,0.43-0.01C172.59,107.86,172.86,108.15,172.78,110.12z"/>
	<path class="st1" d="M156.43,110.89c-0.68,5.12-0.23,11.06-0.16,17c0.02,1.45,0.61,2.8,1.02,4.18c0.6,1.98,0.08,3.16-1.84,3.97
		c-2.21,0.94-4.48,1.02-6.72,0.12c-1.89-0.76-2.56-2.03-1.88-3.94c1.69-4.74,1.23-9.58,0.75-14.41c-0.09-0.89-0.4-1.74-0.93-2.51
		c-1.08-1.56-1-2.77,0.35-4.15c1.72-1.76,3.91-2.64,6.28-3.1c0.35-0.07,0.71-0.11,1.07-0.13
		C156.15,107.82,156.66,108.34,156.43,110.89z"/>
	<path class="st2" d="M147.12,100.47c0.82,0.71,1.53,1.02,2.36,0.98c0.51-0.02,0.78,0.26,1.05,0.62c0.57,0.76,1.34,1.18,2.29,1.23
		c0.38,0.02,0.71,0.05,0.86,0.48c0.31,0.89,0.95,1.49,1.8,1.91c-1.36,1.04-3.53,1.09-5.29,0.1
		C148.22,104.69,147.19,103,147.12,100.47z"/>
	<path class="st0" d="M66.09,125.68c-0.07,1.07-0.06,2.11-0.54,3.07c-0.57,1.12-1.5,1.47-2.57,0.94c-1.17-0.57-1.59-1.52-1.08-2.62
		c0.57-1.24,1.23-2.43,2.21-3.41c0.33-0.33,0.7-0.69,1.21-0.51c0.51,0.18,0.57,0.69,0.64,1.15
		C66.01,124.78,66.04,125.25,66.09,125.68z"/>
	<path class="st3" d="M180.17,116.71c0.04-1.17,0.32-2.27,0.98-3.25c0.33-0.48,0.74-0.76,1.36-0.62c1.07,0.25,2.06,1.79,2.18,3.43
		c0.1,1.24-0.48,2.22-1.57,2.68C181.29,119.72,180.13,118.84,180.17,116.71z"/>
</g>
</svg>
