<?xml version="1.0" encoding="utf-8"?>
<!-- Generator: Adobe Illustrator 23.1.0, SVG Export Plug-In . SVG Version: 6.00 Build 0)  -->
<svg version="1.1" id="Layer_1" xmlns="http://www.w3.org/2000/svg" xmlns:xlink="http://www.w3.org/1999/xlink" x="0px" y="0px"
	 viewBox="0 0 185.62 76.09" style="enable-background:new 0 0 185.62 76.09;" xml:space="preserve">
<style type="text/css">
	.st0{fill:#076361;}
	.st1{fill:#FFFFFF;}
</style>
<g>
	<path class="st0" d="M121.63,41.17c-1.39,2-1.4,2.01-2.79-0.16c-1.65-2.57-3.29-5.15-4.92-7.74c-0.65-1.04-0.44-1.5,0.78-1.57
		c3.44-0.19,6.88-0.35,10.32-0.49c1.29-0.05,1.64,0.47,0.91,1.5c-0.97,1.37-0.92,2.35,0.19,3.76c3.1,3.95,3.39,8.38,1.31,12.88
		c-2.04,4.4-5.68,6.66-10.43,7.13c-1.45,0.14-2.94-0.03-4.33-0.57c-0.62-0.24-1.08-0.19-1.68,0.15c-2.39,1.37-6.5,0.21-7.89-2.16
		c-0.42-0.71-0.58-1.44-0.19-2.21c1.28-2.53,1.6-5.26,1.63-8.03c0.07-5.95,0.14-11.9-0.14-17.85c-0.1-2.16-0.4-4.25-1.73-6.12
		c-0.84-1.18-0.54-2.52,0.37-3.6c2.19-2.58,5.15-3.69,8.4-4.02c1.34-0.14,2.08,0.65,1.93,1.82c-0.8,6.4-0.34,12.83-0.43,19.25
		c-0.05,3.53-0.64,7.04-0.33,10.58c0.15,1.71,0.57,3.4,0.34,5.14c-0.05,0.35,0,0.67,0.41,0.84c2.3,0.94,5.26,0.81,7.38-1.36
		c1.76-1.81,2.29-5.02,1.12-7.06C121.81,41.22,121.7,41.21,121.63,41.17z"/>
	<path class="st0" d="M38.82,53.02c-0.52,0.21-0.74,0.7-1.06,1.09c-3.04,3.76-8.14,3.31-10.34-0.98c-1.66-3.23-1.94-6.69-1.09-10.19
		c0.51-2.1,1.78-3.44,4.12-3.65c2.41-0.21,4.54-1.28,6.53-2.63c2.08-1.42,2.72-3.57,1.72-5.88c-0.31-0.73-0.61-1.63-1.69-1.42
		c-0.84,0.16-1.64,1.58-1.49,2.47c0.03,0.17,0.08,0.34,0.15,0.49c0.62,1.36,0.17,2.52-0.7,3.59c-1.44,1.78-4.7,2.31-6.9,1.14
		c-1.86-0.99-2.47-2.99-1.7-5.53c0.23-0.75,0.56-1.44,0.98-2.1c3.74-5.84,13.85-6.53,18.03-1.23c1.69,2.14,2.14,4.65,2.12,7.3
		c-0.04,3.75-0.17,7.5,0.41,11.23c0.23,1.46,0.67,2.84,1.29,4.18c0.51,1.12,0.33,2.05-0.65,2.87c-1.23,1.04-2.55,1.92-4.08,2.44
		C41.13,57.37,39.56,56.47,38.82,53.02z M38.95,44.56c-0.05-0.6-0.05-1.21-0.17-1.8c-0.28-1.42-0.97-1.64-2.02-0.64
		c-1.11,1.05-1.82,2.39-2.46,3.75c-0.6,1.27-0.1,2.42,1.25,3.02c1.19,0.53,2.24,0.1,2.84-1.19C38.86,46.72,38.92,45.64,38.95,44.56z
		"/>
	<path class="st0" d="M60.35,50.03c1.66-0.66,3.08-2.89,2.95-4.44c-0.07-0.88-0.61-1.39-1.36-1.74c-1.18-0.55-2.46-0.87-3.73-0.99
		C52.7,42.38,50.4,37,51.66,32.34c0.95-3.51,3.07-5.93,6.56-7.04c2.65-0.85,5.36-0.93,8.05-0.28c3.4,0.82,5.32,3.2,5.7,6.98
		c0.11,1.11,0.1,2.24,0.03,3.36c-0.11,1.86-1.35,3.02-3.21,3.03c-2.3,0-4.11-1.09-5.66-2.71c-0.57-0.59-0.44-1.1,0.01-1.71
		c0.54-0.74,1.48-1.67,0.59-2.48c-1.01-0.92-1.77,0.3-2.45,0.92c-1.54,1.42-1.28,3.35,0.59,4.64c1.57,1.09,3.37,1.72,5.06,2.59
		c1.93,1,3.5,2.35,4.4,4.38c2.44,5.47-0.78,11.28-7.01,12.41c-3.33,0.6-6.63,0.2-9.72-1.29c-3.4-1.64-4.89-5.95-3.34-9.39
		c0.67-1.48,1.92-2.04,3.43-2.13c1.32-0.08,2.56,0.3,3.72,0.93C60.77,45.85,61.35,47.39,60.35,50.03z"/>
	<path class="st0" d="M165.71,41.87c0.26,2.21,0.43,4.32,1.02,6.36c0.16,0.54,0.32,1.08,0.56,1.58c0.35,0.75,0.79,1.59,1.77,1.4
		c0.94-0.18,0.95-1.13,1.05-1.88c0.13-0.94,0.19-1.89,0.26-2.83c0.18-2.61,1.76-4.28,4.09-4.27c2.37,0.01,4.06,1.74,4.23,4.33
		c0.3,4.62-3.29,9.15-8.07,9.94c-5.14,0.84-10.95-1.22-12.7-7.57c-1.51-5.49-1.62-11,0.35-16.41c2.46-6.74,9.22-9.72,15.33-6.87
		c3.29,1.53,5.6,5.85,5.03,9.43c-0.34,2.15-1.59,3.71-3.4,4.8C172.35,41.63,169.22,42.35,165.71,41.87z M165.43,34.13
		c-0.05,2.61,1.16,3.61,3.17,2.85c1.33-0.5,1.97-1.63,1.83-3.21c-0.16-1.76-1.26-3.42-2.43-3.67c-0.65-0.14-1.09,0.14-1.43,0.63
		C165.79,31.82,165.48,33.05,165.43,34.13z"/>
	<path class="st0" d="M22.87,30.34c0,3.84,0.06,7.67-0.02,11.51c-0.06,2.82,0.21,5.55,1.07,8.27c1.25,3.93-0.33,6.07-4.49,6.43
		c-1.57,0.14-3.1-0.02-4.53-0.75c-1.83-0.94-2.56-2.41-2.07-4.38c2.26-9.1,1.5-18.33,1.2-27.53c-0.04-1.38-0.5-2.69-1.31-3.87
		c-0.96-1.4-0.92-2.72,0.22-4.03c2.21-2.56,5.21-3.6,8.45-3.93c1.4-0.15,2.01,0.71,1.83,2.12c-0.43,3.4-0.07,6.81-0.12,10.21
		c-0.03,1.98-0.01,3.97-0.01,5.95C23.02,30.34,22.95,30.34,22.87,30.34z"/>
	<path class="st0" d="M85.94,26.83c0.67,0.01,1.05-0.34,1.45-0.66c0.83-0.66,1.66-0.53,2.3,0.2c1.63,1.87,2.3,4.1,2.22,6.55
		c-0.02,0.77-0.48,1.11-1.32,0.99c-1.27-0.18-2.56-0.26-3.85-0.37c-0.53-0.05-0.91,0.05-0.9,0.74c0.03,4.22,0,8.45,0.07,12.67
		c0.02,1.47,0.53,2.86,1.07,4.24c0.92,2.34,0.22,3.93-2.12,4.84c-2.3,0.89-4.64,0.92-6.93-0.05c-2.01-0.85-2.73-2.38-1.91-4.38
		c1-2.45,1.31-4.96,1.26-7.58c-0.05-2.8,0.05-5.6,0.11-8.4c0.02-0.82,0.06-1.48-1.14-1.02c-0.81,0.31-1.44-0.21-1.78-0.93
		c-0.96-2.05-1.05-4.15-0.16-6.25c0.39-0.92,1.07-1.48,2.15-1.05c0.68,0.27,0.71-0.12,0.7-0.62c-0.01-0.69,0.1-1.4-0.02-2.07
		c-0.55-3.04,3.39-5.95,7.11-4.91c1.13,0.32,1.36,1.39,1.46,2.38c0.14,1.46,0.16,2.92,0.23,4.39
		C85.95,25.97,85.94,26.39,85.94,26.83z"/>
	<path class="st0" d="M157.22,27.16c0,0.07-0.01,0.46-0.05,0.85c-0.19,1.68-0.6,2.13-2.27,2.16c-0.83,0.01-1.09,0.24-1.08,1.1
		c0.04,5.09,0.01,10.18,0.03,15.27c0.01,1.66,0.55,3.21,1.12,4.75c0.85,2.29,0.19,3.85-2.07,4.76c-2.25,0.9-4.55,0.94-6.81,0.06
		c-2.21-0.85-2.93-2.47-2.05-4.65c0.87-2.15,1.25-4.36,1.22-6.68c-0.04-3.58,0.03-7.16,0.04-10.74c0-0.69-0.08-1.38-0.12-2.06
		c-0.07-1.09-0.53-1.67-1.74-1.78c-1.69-0.16-2-0.62-2.2-2.45c-0.21-1.84,0.19-2.73,1.52-3.25c1.36-0.54,1.99-1.75,2.68-2.87
		c1.33-2.18,3.24-3.12,5.75-2.96c1.51,0.1,2.13,0.56,2.39,2.02c0.15,0.84,0.28,1.72,0.23,2.57c-0.06,1.07,0.14,1.53,1.38,1.43
		C157.07,24.52,157.26,24.82,157.22,27.16z"/>
	<path class="st0" d="M134.07,56.73c-1.25-0.08-2.44-0.23-3.57-0.72c-2.01-0.87-2.75-2.16-2.04-4.21
		c1.87-5.39,1.45-10.86,0.81-16.35c-0.12-1.04-0.56-1.97-1.15-2.84c-0.92-1.35-0.96-2.54,0.13-3.8c2.49-2.88,5.75-4.16,9.51-4.09
		c1.29,0.02,1.62,0.7,1.45,2.17c-0.78,6.92-0.53,13.85-0.18,20.78c0.07,1.47,0.76,2.82,1.12,4.23c0.42,1.66,0.04,2.7-1.42,3.62
		C137.3,56.42,135.68,56.62,134.07,56.73z"/>
	<path class="st0" d="M138.2,22.26c-2.24,1.17-4.33,1.03-6.34-0.19c-2.03-1.23-2.96-3.1-3.11-5.74c0.98,0.87,1.88,1.22,2.91,1.16
		c0.34-0.02,0.54,0.2,0.73,0.46c0.73,0.99,1.68,1.6,2.95,1.58c0.42-0.01,0.61,0.22,0.74,0.58C136.43,21.09,137.16,21.73,138.2,22.26
		z"/>
	<path class="st1" d="M38.95,44.56c-0.03,1.08-0.1,2.16-0.56,3.16c-0.6,1.29-1.64,1.72-2.84,1.19c-1.35-0.6-1.85-1.76-1.25-3.02
		c0.64-1.36,1.35-2.7,2.46-3.75c1.05-1,1.73-0.78,2.02,0.64C38.9,43.35,38.9,43.96,38.95,44.56z"/>
</g>
</svg>
