<?xml version="1.0" encoding="utf-8"?>
<!-- Generator: Adobe Illustrator 23.1.0, SVG Export Plug-In . SVG Version: 6.00 Build 0)  -->
<svg version="1.1" id="Layer_1" xmlns="http://www.w3.org/2000/svg" xmlns:xlink="http://www.w3.org/1999/xlink" x="0px" y="0px"
	 viewBox="0 0 86.74 113.36" style="enable-background:new 0 0 86.74 113.36;" xml:space="preserve">
<style type="text/css">
	.st0{fill:#066260;}
</style>
<g>
	<path class="st0" d="M18.39,58.59c-0.03-5.73,0.26-11.46-0.11-17.19c-0.15-2.33-0.4-4.64-0.97-6.91c-0.2-0.8-0.44-1.58-0.84-2.31
		c-1.68-3.06-1.46-6.09,0.37-8.96c2.38-3.73,5.83-6.03,10.15-6.97c0.55-0.12,1.15-0.11,1.72-0.05c1.33,0.13,2.1,1.1,2.05,2.61
		c-0.07,1.81-0.26,3.61-0.31,5.42c-0.15,6.06,0.07,12.12,0.06,18.18c0,11.32-0.12,22.64-0.35,33.96c-0.04,1.98,0.01,3.95,0.43,5.89
		c0.41,1.88,1.41,2.69,3.32,2.69c3.09,0.01,6.19,0.04,9.28,0.03c0.45,0,0.61,0.08,0.6,0.57c-0.02,3.43-0.02,6.85,0,10.28
		c0,0.53-0.17,0.62-0.65,0.62c-2.77-0.02-5.54-0.01-8.31-0.01c-4.2,0-8.39,0-12.59,0c-3.67,0-6.63-3.46-5.98-7.09
		c0.53-2.99,1.17-5.97,1.56-8.98c0.55-4.25,0.62-8.52,0.56-12.8C18.36,64.57,18.39,61.58,18.39,58.59z"/>
	<path class="st0" d="M58.14,64.42c-0.3,0.97-0.59,1.94-0.89,2.9c-0.43,1.37-1.45,1.62-2.44,0.58c-1.94-2.05-3.87-4.11-5.8-6.17
		c-2.5-2.67-5.01-5.35-7.51-8.02c-1.02-1.09-0.72-2.09,0.73-2.43c6.4-1.47,12.79-2.93,19.19-4.38c1.24-0.28,1.92,0.4,1.6,1.62
		c-0.32,1.19-0.69,2.36-1.08,3.53c-0.14,0.44-0.09,0.67,0.33,0.92c6.39,3.74,10.13,9.33,11.17,16.63
		c1.68,11.78-4.76,23.03-16.77,26.1c-2.57,0.66-5.19,0.82-7.83,0.73c-0.49-0.02-0.65-0.16-0.64-0.67c0.02-3.34,0.02-6.69,0-10.03
		c0-0.5,0.15-0.54,0.6-0.5c6.75,0.59,11.68-3.5,12.45-10.3c0.41-3.6-0.28-6.92-2.47-9.86C58.61,64.83,58.48,64.54,58.14,64.42z"/>
</g>
</svg>
