<?xml version="1.0" encoding="utf-8"?>
<!-- Generator: Adobe Illustrator 23.1.0, SVG Export Plug-In . SVG Version: 6.00 Build 0)  -->
<svg version="1.1" id="Layer_1" xmlns="http://www.w3.org/2000/svg" xmlns:xlink="http://www.w3.org/1999/xlink" x="0px" y="0px"
	 viewBox="0 0 65.36 76.09" style="enable-background:new 0 0 65.36 76.09;" xml:space="preserve">
<style type="text/css">
	.st0{fill:#FFFFFF;}
</style>
<g>
	<path class="st0" d="M35.41,55.42c0,0.86-0.03,1.73,0.01,2.59c0.03,0.53-0.18,0.61-0.66,0.64c-0.96,0.06-1.88-0.2-2.82-0.2
		c-2.8,0-5.6,0-8.39,0c-2.43,0-3.96-1.88-3.44-4.28c0.72-3.3,1.13-6.62,1.14-10c0.01-4.37,0.03-8.75,0.03-13.12
		c0-2.14-0.11-4.28-0.52-6.4c-0.13-0.7-0.33-1.38-0.67-2.02c-0.87-1.65-0.73-3.29,0.24-4.83c1.32-2.09,3.22-3.39,5.63-3.92
		c1.54-0.33,2.22,0.25,2.13,1.8c-0.4,6.72,0.06,13.45-0.12,20.17c-0.1,3.9-0.15,7.79-0.22,11.69c-0.02,1.04,0.02,2.09,0.27,3.1
		c0.27,1.09,0.78,1.49,1.88,1.5c1.63,0.03,3.27,0.08,4.9,0.08c0.47,0,0.63,0.12,0.61,0.6C35.38,53.69,35.41,54.55,35.41,55.42z"/>
	<path class="st0" d="M43.97,41.13c-0.18,0.55-0.3,0.97-0.45,1.38c-0.44,1.25-1.46,1.5-2.4,0.56c-0.76-0.75-1.47-1.55-2.21-2.33
		c-1.69-1.8-3.38-3.6-5.07-5.4c-1.06-1.14-0.77-2.18,0.73-2.53c3.44-0.8,6.88-1.59,10.32-2.37c1.46-0.33,2.31,0.5,1.74,1.86
		c-0.61,1.48-0.29,2.24,0.99,3.3c4.37,3.61,5.51,8.43,4.05,13.76c-1.45,5.29-5.18,8.22-10.55,9.06c-0.87,0.14-1.78,0.05-2.67,0.08
		c-0.38,0.01-0.58-0.07-0.58-0.54c0.03-1.73,0.01-3.45,0.01-5.18c0-0.31-0.04-0.53,0.46-0.47c4.69,0.57,7.47-3.46,6.98-7.74
		C45.19,43.39,44.83,42.26,43.97,41.13z"/>
</g>
</svg>
